#!OML:ASF F:\VICON\USERDATA\INSTALL\rory3\rory3.ASF
:FULLY-SPECIFIED
:DEGREES
601
root -0.889127 24.3312 -0.475718 178.493 -7.10527 168.303
lowerback 10.9051 -2.9478 -4.08778
upperback 2.06023 -4.56236 0.757351
thorax -3.56921 -2.30762 3.70615
lowerneck -8.57988 -1.27791 -6.69759
upperneck 22.362 -0.360913 4.25214
head 8.3775 0.149994 2.59352
rclavicle -6.02318e-014 9.54166e-015
rhumerus -29.2936 -0.992497 -70.0335
rradius 47.7493
rwrist 1.84867
rhand -27.9804 1.83824
rfingers 7.12502
rthumb -1.36694 -28.1371
lclavicle -6.02318e-014 9.54166e-015
lhumerus -13.6249 5.36284 72.8487
lradius 30.9623
lwrist -2.55469
lhand -31.6113 24.6982
lfingers 7.12502
lthumb -4.87337 54.6221
rfemur -23.7309 2.99382 15.4506
rtibia 60.708
rfoot -36.0892 -16.5477
rtoes 7.47513
lfemur -10.3779 4.47164 -26.5195
ltibia 53.1854
lfoot 18.6628 3.36316
ltoes -12.7801
602
root -0.867222 24.3786 -0.50666 178.441 -6.76791 168.555
lowerback 10.8598 -2.76788 -3.99528
upperback 2.0884 -4.31162 0.721013
thorax -3.54705 -2.1854 3.58127
lowerneck -9.14415 -1.16038 -6.19398
upperneck 23.1494 -0.0827237 3.78807
head 8.73453 0.298592 2.40039
rclavicle -1.64991e-014 4.77083e-014
rhumerus -29.3233 -0.83529 -69.9432
rradius 47.3347
rwrist 2.00748
rhand -27.1831 1.57171
rfingers 7.12502
rthumb -0.596953 -28.4072
lclavicle -1.64991e-014 4.77083e-014
lhumerus -14.139 5.24391 72.9633
lradius 31.2939
lwrist -2.39136
lhand -32.4138 24.707
lfingers 7.12502
lthumb -5.64828 54.6118
rfemur -23.2017 3.46765 15.8679
rtibia 59.8635
rfoot -35.8888 -16.6981
rtoes 7.80039
lfemur -11.4141 5.12992 -25.9685
ltibia 55.4717
lfoot 18.3691 3.48261
ltoes -12.7997
603
root -0.851574 24.4309 -0.535769 178.388 -6.58737 168.711
lowerback 10.8773 -2.64853 -3.87687
upperback 2.07595 -4.14172 0.63192
thorax -3.59976 -2.09982 3.40287
lowerneck -9.30126 -1.11371 -5.86234
upperneck 23.4392 0.0296587 3.49601
head 8.85791 0.36038 2.26419
rclavicle -9.93923e-015 4.77083e-015
rhumerus -29.4575 -0.603529 -69.8681
rradius 47.0694
rwrist 2.27927
rhand -26.3929 0.5826
rfingers 7.12502
rthumb 0.166279 -29.3971
lclavicle -9.93923e-015 4.77083e-015
lhumerus -14.7054 5.17967 73.0681
lradius 31.5697
lwrist -2.25757
lhand -33.3102 24.0853
lfingers 7.12502
lthumb -6.51367 53.9651
rfemur -22.6822 3.65264 16.1325
rtibia 59.0709
rfoot -35.5477 -16.9869
rtoes 7.91072
lfemur -12.4184 5.63411 -25.5589
ltibia 57.7494
lfoot 18.3111 3.53336
ltoes -12.5741
604
root -0.837954 24.4853 -0.565469 178.297 -6.35593 168.801
lowerback 10.9491 -2.51156 -3.8106
upperback 2.05189 -3.95714 0.541189
thorax -3.691 -2.00547 3.25357
lowerneck -9.12793 -1.12714 -5.98862
upperneck 23.2967 -0.00676907 3.61503
head 8.77825 0.344075 2.31854
rclavicle 4.31363e-014 -2.22639e-014
rhumerus -29.6455 -0.300186 -69.7528
rradius 46.8321
rwrist 2.4652
rhand -26.1009 0.229933
rfingers 7.12502
rthumb 0.448298 -29.7493
lclavicle 4.31363e-014 -2.22639e-014
lhumerus -15.3856 5.05007 73.1875
lradius 31.9303
lwrist -1.95293
lhand -33.3753 22.4477
lfingers 7.12502
lthumb -6.57656 52.3256
rfemur -22.1361 3.88214 16.3264
rtibia 58.3073
rfoot -35.135 -17.2616
rtoes 8.45874
lfemur -13.3633 6.07592 -25.2328
ltibia 60.02
lfoot 18.3151 3.92693
ltoes -10.7998
605
root -0.818896 24.5304 -0.593909 178.176 -5.95131 168.761
lowerback 11.0474 -2.31011 -3.99458
upperback 2.05605 -3.72158 0.42188
thorax -3.75649 -1.88606 3.20779
lowerneck -8.94933 -1.08777 -6.08287
upperneck 23.1379 0.0220347 3.73538
head 8.68841 0.360516 2.3738
rclavicle -1.37161e-014 -1.43125e-014
rhumerus -29.6984 -0.0604356 -69.7126
rradius 46.4819
rwrist 2.69019
rhand -25.9492 0.253047
rfingers 7.12502
rthumb 0.594839 -29.7259
lclavicle -1.37161e-014 -1.43125e-014
lhumerus -16.0731 5.0024 73.2146
lradius 32.2503
lwrist -1.79673
lhand -33.2526 22.2919
lfingers 7.12502
lthumb -6.45808 52.1734
rfemur -21.5926 4.34457 16.4095
rtibia 57.5656
rfoot -34.747 -17.4614
rtoes 8.89233
lfemur -14.2975 6.62598 -25.0238
ltibia 62.2872
lfoot 18.3703 4.58209
ltoes -7.5092
606
root -0.79933 24.5734 -0.618221 178.121 -5.55462 168.929
lowerback 11.1094 -2.15113 -3.97599
upperback 2.0399 -3.512 0.381508
thorax -3.82844 -1.77995 3.13204
lowerneck -8.9069 -1.00044 -5.99395
upperneck 23.1017 0.150648 3.62943
head 8.66143 0.418479 2.33431
rclavicle -4.92986e-014 2.54444e-014
rhumerus -29.5296 0.151705 -69.688
rradius 45.9538
rwrist 3.0645
rhand -25.8727 0.246713
rfingers 7.12502
rthumb 0.66873 -29.732
lclavicle -4.92986e-014 2.54444e-014
lhumerus -16.7495 5.09942 73.2162
lradius 32.4608
lwrist -1.85875
lhand -33.3389 24.4084
lfingers 7.12502
lthumb -6.54142 54.2874
rfemur -21.179 4.84217 16.7205
rtibia 56.793
rfoot -34.3539 -17.6872
rtoes 9.36638
lfemur -15.4064 7.14013 -24.599
ltibia 64.597
lfoot 18.3115 4.90178
ltoes -5.4291
607
root -0.784482 24.6234 -0.642522 178.077 -5.1819 169.203
lowerback 11.1349 -2.03929 -3.7242
upperback 2.04246 -3.33734 0.320791
thorax -3.87185 -1.69538 2.90577
lowerneck -8.88917 -0.909202 -5.90408
upperneck 23.0015 0.247598 3.63741
head 8.6179 0.469246 2.32846
rclavicle 2.18663e-015 -4.77083e-015
rhumerus -29.349 0.291828 -69.7332
rradius 45.5059
rwrist 3.47722
rhand -26.0593 0.83695
rfingers 7.12502
rthumb 0.488466 -29.1422
lclavicle 2.18663e-015 -4.77083e-015
lhumerus -17.4273 5.15132 73.1506
lradius 32.686
lwrist -1.79419
lhand -33.2326 26.1358
lfingers 7.12502
lthumb -6.4388 56.0179
rfemur -20.78 5.278 17.1285
rtibia 55.9899
rfoot -33.8805 -17.9696
rtoes 9.41739
lfemur -16.534 7.58682 -24.1048
ltibia 66.8964
lfoot 18.2905 5.04059
ltoes -3.85024
608
root -0.772095 24.6756 -0.66991 178.017 -4.86931 169.395
lowerback 11.1504 -1.95519 -3.55178
upperback 2.05654 -3.20914 0.267504
thorax -3.88782 -1.63436 2.73677
lowerneck -8.87965 -0.872564 -5.94801
upperneck 22.9639 0.307791 3.61257
head 8.60044 0.490138 2.33229
rclavicle 2.127e-014 -1.90833e-014
rhumerus -29.1523 0.448711 -69.7557
rradius 45.0854
rwrist 3.92271
rhand -26.3498 1.33172
rfingers 7.12502
rthumb 0.207895 -28.6479
lclavicle 2.127e-014 -1.90833e-014
lhumerus -18.1524 5.18189 73.1229
lradius 32.905
lwrist -1.58736
lhand -32.9862 26.8844
lfingers 7.12502
lthumb -6.20085 56.7736
rfemur -20.2611 5.62368 17.422
rtibia 55.1476
rfoot -33.5886 -18.0797
rtoes 9.67077
lfemur -17.6374 7.96738 -23.7222
ltibia 69.1961
lfoot 17.3515 4.47185
ltoes -5.64237
609
root -0.761558 24.721 -0.698399 177.934 -4.59722 169.437
lowerback 11.1531 -1.8678 -3.53139
upperback 2.07721 -3.09554 0.196698
thorax -3.88088 -1.57993 2.6358
lowerneck -8.71019 -0.845893 -6.05832
upperneck 22.7912 0.355716 3.56724
head 8.50839 0.496369 2.33494
rclavicle 1.98785e-015 1.27222e-014
rhumerus -28.8863 0.57433 -69.7472
rradius 44.5557
rwrist 4.40091
rhand -26.4933 1.32402
rfingers 7.12502
rthumb 0.0693214 -28.6557
lclavicle 1.98785e-015 1.27222e-014
lhumerus -18.9005 5.20633 73.1406
lradius 33.0265
lwrist -1.35847
lhand -32.8849 26.141
lfingers 7.12502
lthumb -6.10305 56.0331
rfemur -19.6694 5.86574 17.5331
rtibia 54.3119
rfoot -33.3582 -18.0661
rtoes 10.06
lfemur -18.6996 8.27502 -23.5257
ltibia 71.4694
lfoot 16.2744 3.92454
ltoes -7.04766
610
root -0.748787 24.7589 -0.726454 177.856 -4.28932 169.662
lowerback 11.1283 -1.78205 -3.33665
upperback 2.09981 -2.9607 0.146242
thorax -3.86535 -1.5167 2.45395
lowerneck -8.57486 -0.809638 -6.08456
upperneck 22.6033 0.387413 3.5702
head 8.41765 0.505388 2.3378
rclavicle -4.37326e-015 -1.11319e-014
rhumerus -28.5881 0.617864 -69.7888
rradius 44.035
rwrist 4.85179
rhand -26.3947 1.05381
rfingers 7.12502
rthumb 0.16449 -28.9259
lclavicle -4.37326e-015 -1.11319e-014
lhumerus -19.6635 5.42258 73.0702
lradius 33.1664
lwrist -1.29276
lhand -32.824 24.4783
lfingers 7.12502
lthumb -6.04429 54.372
rfemur -19.1236 6.07602 17.8573
rtibia 53.5054
rfoot -33.0445 -18.0409
rtoes 10.0061
lfemur -19.7984 8.6108 -23.1168
ltibia 73.7644
lfoot 15.1823 4.09229
ltoes -6.38902
611
root -0.734529 24.7945 -0.749311 177.767 -3.92336 169.979
lowerback 11.1252 -1.68378 -3.12224
upperback 2.14866 -2.80709 0.156669
thorax -3.83218 -1.4458 2.32221
lowerneck -8.42357 -0.744989 -6.03462
upperneck 22.3066 0.461232 3.43701
head 8.28619 0.523381 2.28285
rclavicle 1.23246e-014 -1.27222e-014
rhumerus -28.2718 0.683921 -69.8252
rradius 43.6792
rwrist 5.2479
rhand -26.4871 1.11698
rfingers 7.12502
rthumb 0.0752564 -28.8628
lclavicle 1.23246e-014 -1.27222e-014
lhumerus -20.2844 6.04773 72.9647
lradius 33.0875
lwrist -1.41049
lhand -32.7145 23.5291
lfingers 7.12502
lthumb -5.9386 53.4258
rfemur -18.6097 6.34705 18.3023
rtibia 52.7388
rfoot -32.8113 -18.015
rtoes 10.1293
lfemur -20.927 8.97864 -22.5995
ltibia 76.0431
lfoot 14.0623 4.36959
ltoes -4.89498
612
root -0.721605 24.831 -0.764726 177.664 -3.60793 169.948
lowerback 11.3021 -1.57468 -3.27
upperback 2.16439 -2.69481 0.0772206
thorax -3.91751 -1.38958 2.31441
lowerneck -8.31459 -0.653664 -5.90688
upperneck 22.0957 0.583526 3.24285
head 8.19013 0.567696 2.20149
rclavicle 1.19271e-015 1.27222e-014
rhumerus -28.0081 0.84208 -69.8738
rradius 43.3836
rwrist 5.37967
rhand -26.509 1.20776
rfingers 7.12502
rthumb 0.0541141 -28.772
lclavicle 1.19271e-015 1.27222e-014
lhumerus -20.8306 6.68544 72.8043
lradius 32.7074
lwrist -1.60137
lhand -32.6907 22.9612
lfingers 7.12502
lthumb -5.91561 52.8586
rfemur -18.1255 6.55959 18.3305
rtibia 52.0284
rfoot -32.5956 -17.8893
rtoes 10.654
lfemur -22.0645 9.2644 -22.5063
ltibia 78.2633
lfoot 12.7414 4.33291
ltoes -4.70737
613
root -0.709888 24.8663 -0.778223 177.496 -3.34512 169.915
lowerback 11.6382 -1.48985 -3.39357
upperback 2.15207 -2.62055 -0.00796504
thorax -4.11929 -1.34986 2.29912
lowerneck -8.31754 -0.559776 -5.95611
upperneck 22.0906 0.715446 3.27391
head 8.182 0.629006 2.23224
rclavicle 5.96354e-016 4.29375e-014
rhumerus -27.8181 0.921951 -69.9251
rradius 43.152
rwrist 5.5289
rhand -26.4342 0.832384
rfingers 7.12502
rthumb 0.126352 -29.1473
lclavicle 5.96354e-016 4.29375e-014
lhumerus -21.4269 7.12157 72.6684
lradius 32.2875
lwrist -1.71727
lhand -32.7088 22.6275
lfingers 7.12502
lthumb -5.93303 52.5245
rfemur -17.5743 6.74574 18.3599
rtibia 51.338
rfoot -32.3123 -17.8299
rtoes 11.0274
lfemur -23.1236 9.53436 -22.4117
ltibia 80.4306
lfoot 11.2389 4.0848
ltoes -5.25466
614
root -0.698254 24.8953 -0.794285 177.31 -3.09045 170.051
lowerback 11.924 -1.40583 -3.31795
upperback 2.1649 -2.5203 -0.0677434
thorax -4.27598 -1.30121 2.19105
lowerneck -8.23448 -0.511323 -5.89511
upperneck 21.957 0.768217 3.21892
head 8.11956 0.650852 2.20448
rclavicle 1.59028e-015 4.6118e-014
rhumerus -27.5922 0.794238 -69.9653
rradius 42.8818
rwrist 5.74842
rhand -26.3417 1.03222
rfingers 7.12502
rthumb 0.215752 -28.9474
lclavicle 1.59028e-015 4.6118e-014
lhumerus -21.9538 7.46782 72.5357
lradius 31.8653
lwrist -1.83248
lhand -32.4986 22.7919
lfingers 7.12502
lthumb -5.73014 52.6945
rfemur -16.9592 6.94075 18.595
rtibia 50.6534
rfoot -32.1594 -17.7224
rtoes 11.3882
lfemur -24.2111 9.8321 -22.1024
ltibia 82.5883
lfoot 9.71169 3.76577
ltoes -5.08319
